<?xml version="1.0" encoding="UTF-8"?>
<svg xmlns="http://www.w3.org/2000/svg" version="1.1" viewBox="0 0 827 1200" width="827" height="1200">
<title>Pipfrosch Press Silhouette of Logo</title>
<desc>A gray silhouette of a Hylidae frog clinging to a branch. Will be replaced by color logo once licensed.</desc>
<path fill-rule="evenodd" fill="lightgray" d="
M  80.18,   0.00  L 260.33,   0.00                                    L 260.61    1.53
                  C 263.24,  14.97   263.31,  28.66   265.80,  42.10  C 266.74,  47.51   267.06,  52.96   267.46,  58.43
                  C 273.59,  55.53   278.47,  51.82   285.20,  50.26  C 294.92,  47.64   304.77,  50.20   314.22,  52.73
                  C 327.17,  56.29   338.77,  66.59   348.44,  75.53  C 355.31,  81.39   360.66,  88.59   367.26,  94.74
                  C 372.14,  99.28   376.37, 104.28   380.48, 109.52  C 384.72, 115.36   391.93, 115.78   396.09, 121.85
                  C 401.26, 129.68   403.19, 138.95   409.37, 146.34  C 412.65, 142.87   416.10, 138.70   420.40, 136.52
                  C 425.67, 133.80   431.55, 132.86   436.80, 129.70  C 440.46, 127.48   443.63, 124.61   447.43, 122.54
                  C 456.60, 117.64   466.66, 115.51   477.00, 115.00  C 487.08, 114.53   496.92, 112.34   506.99, 111.99
                  C 514.69, 111.61   522.39, 111.10   530.06, 110.38  C 533.00, 109.92   536.40, 110.04   538.47, 107.56
                  C 543.15, 102.52   546.96,  96.66   551.77,  91.75  C 555.96,  87.47   560.79,  85.04   565.55,  81.50
                  C 569.34,  78.70   573.05,  76.05   577.61,  74.65  C 591.24,  70.54   605.49,  69.32   619.29,  73.47
                  C 634.12,  76.84   643.82,  87.93   656.50,  96.54  C 668.00, 105.92   680.89, 109.55   694.54, 114.65
                  C 696.87, 115.28   699.91, 116.76   702.12, 115.13  C 706.23, 112.58   710.13, 109.72   714.39, 107.38
                  C 725.72, 100.65   738.71,  98.13   751.79,  98.45  C 757.72,  98.87   763.66, 100.43   768.99, 103.07 
                  C 774.12, 105.64   777.82, 110.32   781.16, 114.84  C 784.25, 119.21   787.16, 124.07   788.64, 129.24
                  C 790.33, 135.27   789.54, 140.97   790.40, 147.00  C 791.08, 151.62   794.08, 155.30   794.93, 159.97
                  C 796.34, 165.77   795.38, 172.27   797.38, 177.82  C 800.69, 185.78   806.75, 193.76   808.70, 202.21
                  C 810.85, 210.94   809.89, 220.65   808.27, 229.40  C 804.90, 243.37   795.54, 253.05   784.19, 261.17
                  C 764.19, 274.49   741.07, 284.37   722.26, 299.26  C 710.59, 308.19   697.80, 314.82   687.22, 325.22
                  C 677.81, 333.09   671.01, 342.88   663.47, 352.45  C 656.02, 363.13   649.16, 374.69   643.26, 386.30
                  C 637.87, 396.60   635.55, 408.56   631.81, 419.86  C 627.72, 431.95   624.21, 444.40   621.95, 456.97
                  C 620.18, 469.81   618.92, 482.73   617.51, 495.61  C 615.86, 509.65   612.73, 523.23   610.19, 537.10
                  C 609.25, 542.27   607.98, 547.37   606.29, 552.35  C 602.59, 562.61   600.94, 573.23   596.21, 583.16
                  C 588.22, 600.59   578.54, 617.59   566.74, 632.74  C 561.77, 639.27   556.01, 644.45   550.25, 650.25
                  C 543.06, 657.31   536.76, 664.67   528.32, 670.34  C 515.74, 678.99   503.12, 688.82   489.35, 695.36
                  C 477.87, 701.01   467.33, 707.13   454.98, 710.90  C 440.69, 714.99   427.07, 719.37   412.12, 720.39
                  C 429.53, 749.65   449.29, 776.23   469.51, 803.46  C 479.34, 818.14   490.56, 831.70   501.30, 845.71
                  C 511.05, 857.38   519.06, 870.78   527.50, 883.54  C 533.15, 891.70   535.93, 901.45   537.87, 911.08
                  C 539.76, 921.90   541.24, 934.01   538.86, 944.83  C 537.01, 953.12   534.89, 961.05   530.33, 968.33
                  C 525.58, 975.95   520.28, 983.55   513.75, 989.74  C 497.62,1003.92   479.15,1015.04   457.01,1015.08
                  C 438.08,1014.88   418.80,1008.84   400.89,1003.10  C 396.90,1001.72   394.58,1004.52   391.31,1006.24
                  C 387.50,1008.62   383.50,1009.11   379.17,1009.98  C 381.06,1027.03   384.07,1043.93   386.06,1060.97
                  C 390.74,1098.59   395.07,1136.24   400.32,1173.78  C 401.62,1182.49   402.17,1191.35   403.81,1200.00
                  L 211.18,1200.00                                    C 207.90,1174.74   206.14,1149.29   202.94,1124.01
                  C 200.60,1110.18   200.53,1096.11   198.50,1082.22  C 196.35,1068.84   195.84,1055.34   194.26,1041.90
                  C 193.60,1035.87   192.89,1029.84   192.40,1023.79  C 191.61,1002.45   186.98, 981.25   184.91, 960.00
                  C 183.99, 948.84   182.39, 937.76   181.53, 926.60  C 180.92, 920.47   181.08, 912.68   177.64, 907.35
                  C 173.87, 901.57   169.38, 896.71   166.78, 890.17  C 163.05, 881.13   160.61, 870.27   162.58, 860.56
                  C 164.35, 852.50   171.99, 848.91   171.82, 841.05  C 171.77, 832.19   169.86, 823.18   169.19, 814.34
                  C 168.30, 805.49   167.48, 796.60   166.19, 787.79  C 164.37, 776.12   164.07, 764.31   162.37, 752.60
                  C 160.93, 743.08   160.08, 733.50   159.42, 723.89  C 159.00, 713.83   156.27, 704.12   156.05, 694.01
                  C 154.96, 666.67   149.41, 639.92   147.26, 612.82  C 141.27, 616.55   136.04, 621.13   130.78, 625.79
                  C 123.64, 632.16   114.22, 636.41   105.71, 640.75  C  99.09, 644.15    91.88, 646.05    84.41, 645.51
                  C  72.95, 644.39    61.88, 640.39    52.90, 633.08  C  45.50, 626.89    38.61, 620.09    35.09, 610.90
                  C  31.67, 602.74    31.72, 593.95    31.12, 584.99  C  30.62, 575.71    33.89, 567.89    37.65, 559.66
                  C  43.91, 545.79    46.84, 531.11    48.01, 516.00  C  48.81, 506.96    50.50, 498.05    51.03, 489.00
                  C  52.31, 467.20    54.72, 445.38    58.69, 423.89  C  60.08, 412.33    62.72, 401.15    65.94, 389.99
                  C  70.24, 372.89    74.62, 355.89    80.21, 339.15  C  88.28, 316.45    97.55, 294.14   107.08, 272.02
                  C 110.64, 264.15   107.66, 254.38   107.29, 245.98  C 106.86, 235.84   105.99, 225.82   104.36, 215.81
                  C  87.30, 222.32    75.92, 236.58    58.11, 243.05  C  45.94, 247.01    31.95, 243.13    25.17, 231.91
                  C  20.64, 222.67    22.77, 210.40    30.23, 203.25  C  34.58, 199.09    39.72, 195.41    45.95, 195.07
                  C  53.62, 194.48    61.34, 194.33    69.02, 193.93  C  79.90, 193.33    90.21, 190.26   100.10, 185.79
                  C  99.96, 175.06    97.44, 164.70    97.02, 154.01  C  96.68, 143.31    95.36, 132.69    95.14, 121.98
                  C  94.90, 118.94    95.00, 114.69    92.68, 112.38  C  85.37, 105.15    73.48, 100.84    67.63,  92.36
                  C  63.11,  85.69    65.13,  78.37    68.96,  71.98  C  73.01,  64.85    79.44,  61.00    86.54,  57.43
                  C  85.00,  38.71    82.86,  20.12    80.47,   1.49  L  80.18,   0.00Z
M 311.33, 146.55  C 314.09, 151.58   316.03, 156.64   320.16, 160.82  C 325.86, 167.22   332.86, 171.72   340.36, 175.70
                  C 346.74, 178.76   347.56, 186.89   349.02, 193.01  C 349.82, 198.55   352.86, 203.06   354.40, 208.30
                  C 355.06, 210.24   353.37, 211.85   352.31, 213.27  C 348.23, 217.83   343.54, 221.88   339.04, 226.02
                  C 332.16, 231.93   327.15, 239.27   320.74, 245.73  C 310.66, 256.31   303.52, 269.41   292.96, 279.42
                  C 290.48, 267.68   290.20, 255.91   288.86, 244.04  C 286.44, 224.14   285.00, 204.17   282.12, 184.32
                  C 287.26, 186.46   291.88, 188.75   297.64, 187.68  C 307.15, 185.87   313.59, 176.51   312.91, 167.03
                  C 312.38, 159.22   308.42, 153.87   305.48, 146.94  C 307.42, 146.78   309.38, 146.58   311.33, 146.55Z
"/>
</svg>